<?xml version="1.0" encoding="utf-8"?>
<!-- Generator: Adobe Illustrator 19.2.1, SVG Export Plug-In . SVG Version: 6.00 Build 0)  -->
<!DOCTYPE svg PUBLIC "-//W3C//DTD SVG 1.1//EN" "http://www.w3.org/Graphics/SVG/1.1/DTD/svg11.dtd">
<svg version="1.1" id="Layer_1" xmlns="http://www.w3.org/2000/svg" xmlns:xlink="http://www.w3.org/1999/xlink" x="0px" y="0px"
	 viewBox="0 0 125.5 100.2" style="enable-background:new 0 0 125.5 100.2;" xml:space="preserve">
<style type="text/css">
	.st0{fill:#ffffff;}
</style>
<g>
	<g>
		<path class="st0" d="M96.8,28L80.2,44.6L63.6,28c-0.4-0.4-1-0.4-1.4,0L45.6,44.6L29,28c-0.4-0.4-1-0.4-1.4,0c-0.4,0.4-0.4,1,0,1.4
			L44.2,46L27.6,62.6c-0.4,0.4-0.4,1,0,1.4c0.2,0.2,0.4,0.3,0.7,0.3c0.3,0,0.5-0.1,0.7-0.3l16.6-16.6L62.2,64
			c0.2,0.2,0.4,0.3,0.7,0.3c0.3,0,0.5-0.1,0.7-0.3l17.3-17.3l0,0l0,0l17.3-17.3c0.4-0.4,0.4-1,0-1.4C97.8,27.6,97.2,27.6,96.8,28z
			 M62.9,30.1L78.8,46L62.9,61.9L47,46L62.9,30.1z"/>
		<polygon class="st0" points="99.4,27.8 100.2,27.8 100.2,30 100.4,30 100.4,27.8 101.3,27.8 101.3,27.6 99.4,27.6 		"/>
		<polygon class="st0" points="103.5,27.6 102.6,29.7 101.8,27.6 101.5,27.6 101.5,30 101.7,30 101.7,28 101.7,28 102.5,30
			102.8,30 103.6,28 103.6,28 103.6,30 103.8,30 103.8,27.6 		"/>
	</g>
	<g>
		<path class="st0" d="M28.7,68.7h-1.2c-0.1,0-0.1-0.1-0.1-0.1c0-0.1,0.1-0.1,0.1-0.1h2.7c0.1,0,0.1,0.1,0.1,0.1
			c0,0.1-0.1,0.1-0.1,0.1h-1.2v3.5c0,0.1-0.1,0.1-0.1,0.1c-0.1,0-0.1-0.1-0.1-0.1V68.7z"/>
		<path class="st0" d="M33.2,70.7c0-0.5-0.4-0.8-0.9-0.8c-0.5,0-0.9,0.3-0.9,0.8v1.5v0c0,0,0,0,0,0c0,0,0,0,0,0c0,0,0,0.1-0.1,0.1
			c0,0,0,0,0,0h0h0c0,0-0.1,0-0.1,0c0,0,0,0,0,0c0,0,0,0,0,0v-1.5v0v-2.1c0-0.1,0.1-0.1,0.1-0.1c0.1,0,0.1,0.1,0.1,0.1V70
			c0.2-0.2,0.5-0.4,0.9-0.4c0.6,0,1.2,0.5,1.2,1.1v1.5c0,0.1-0.1,0.1-0.1,0.1c-0.1,0-0.1-0.1-0.1-0.1V70.7z"/>
		<path class="st0" d="M34.4,71c0-0.8,0.6-1.4,1.3-1.4c0.7,0,1.3,0.6,1.3,1.3v0v0c0,0.1-0.1,0.1-0.1,0.1h-2.3c0,0.6,0.5,1.1,1.1,1.1
			c0.4,0,0.7-0.2,0.9-0.5c0-0.1,0.1-0.1,0.2,0c0.1,0,0.1,0.1,0,0.2c-0.2,0.4-0.7,0.6-1.1,0.6C35,72.4,34.4,71.7,34.4,71z M34.7,70.8
			h2.1c-0.1-0.5-0.5-0.9-1-0.9C35.2,69.9,34.8,70.2,34.7,70.8z"/>
		<path class="st0" d="M39.8,68.5c0-0.1,0.1-0.1,0.1-0.1h0h2c0.1,0,0.1,0.1,0.1,0.1c0,0.1-0.1,0.1-0.1,0.1h-1.9v1.6h1.7
			c0.1,0,0.1,0.1,0.1,0.1c0,0.1-0.1,0.1-0.1,0.1h-1.7v1.7c0,0.1-0.1,0.1-0.1,0.1c-0.1,0-0.1-0.1-0.1-0.1V68.5z"/>
		<path class="st0" d="M43.1,68.8c0-0.1,0.1-0.1,0.1-0.1c0.1,0,0.1,0.1,0.1,0.1v0.1c0,0.1-0.1,0.1-0.1,0.1c-0.1,0-0.1-0.1-0.1-0.1
			V68.8z M43.1,69.7c0-0.1,0.1-0.1,0.1-0.1c0.1,0,0.1,0.1,0.1,0.1v2.5c0,0.1-0.1,0.1-0.1,0.1c-0.1,0-0.1-0.1-0.1-0.1V69.7z"/>
		<path class="st0" d="M46.7,70.7c0-0.5-0.4-0.9-0.9-0.9c-0.5,0-0.8,0.4-0.9,0.9v1.5v0c0,0,0,0,0,0.1c0,0-0.1,0.1-0.1,0.1h0
			c0,0-0.1,0-0.1-0.1c0,0,0,0,0,0c0,0,0,0,0,0v0v-1.5v0v-0.9c0-0.1,0.1-0.1,0.1-0.1c0.1,0,0.1,0.1,0.1,0.1V70
			c0.2-0.2,0.5-0.4,0.9-0.4c0.6,0,1.1,0.5,1.1,1.1v1.5c0,0.1-0.1,0.1-0.1,0.1s-0.1-0.1-0.1-0.1V70.7z"/>
		<path class="st0" d="M50.3,71.8c-0.2,0.3-0.6,0.5-1.1,0.5c-0.7,0-1.3-0.6-1.3-1.4c0-0.8,0.6-1.4,1.3-1.4c0.4,0,0.8,0.2,1.1,0.5
			v-1.6c0-0.1,0.1-0.1,0.1-0.1c0.1,0,0.1,0.1,0.1,0.1v2.4V71v1.2c0,0.1-0.1,0.1-0.1,0.1c-0.1,0-0.1-0.1-0.1-0.1V71.8z M50.3,71
			L50.3,71c0-0.7-0.5-1.2-1.1-1.2c-0.6,0-1.1,0.5-1.1,1.1c0,0.6,0.5,1.1,1.1,1.1C49.8,72.1,50.3,71.6,50.3,71z"/>
		<path class="st0" d="M54.1,69.7v2.5c0,0.1-0.1,0.1-0.1,0.1s-0.1-0.1-0.1-0.1v-0.4c-0.2,0.3-0.6,0.5-1,0.5c-0.7,0-1.3-0.6-1.3-1.4
			c0-0.8,0.6-1.4,1.3-1.4c0.4,0,0.8,0.2,1,0.5v-0.4c0-0.1,0.1-0.1,0.1-0.1S54.1,69.6,54.1,69.7z M53.9,71c0-0.6-0.5-1.1-1-1.1
			c-0.6,0-1,0.5-1,1.1s0.5,1.1,1,1.1C53.4,72.1,53.9,71.6,53.9,71z"/>
		<path class="st0" d="M55.3,71L55.3,71v-0.1v-2.4c0-0.1,0.1-0.1,0.1-0.1c0.1,0,0.1,0.1,0.1,0.1v1.6c0.2-0.3,0.6-0.5,1.1-0.5
			c0.7,0,1.3,0.6,1.3,1.4c0,0.8-0.6,1.4-1.3,1.4c-0.4,0-0.8-0.2-1.1-0.5v0.4c0,0.1-0.1,0.1-0.1,0.1c-0.1,0-0.1-0.1-0.1-0.1V71z
			 M55.6,71c0,0.6,0.5,1.1,1.1,1.1c0.6,0,1.1-0.5,1.1-1.1c0-0.6-0.5-1.1-1.1-1.1C56.1,69.9,55.6,70.3,55.6,71L55.6,71z"/>
		<path class="st0" d="M59.1,68.5c0-0.1,0.1-0.1,0.1-0.1c0.1,0,0.1,0.1,0.1,0.1v3.7c0,0.1-0.1,0.1-0.1,0.1c-0.1,0-0.1-0.1-0.1-0.1
			V68.5z"/>
		<path class="st0" d="M60.5,71c0-0.8,0.6-1.4,1.3-1.4c0.7,0,1.3,0.6,1.3,1.3v0v0c0,0.1-0.1,0.1-0.1,0.1h-2.3c0,0.6,0.5,1.1,1.1,1.1
			c0.4,0,0.7-0.2,0.9-0.5c0-0.1,0.1-0.1,0.2,0c0.1,0,0.1,0.1,0,0.2c-0.2,0.4-0.7,0.6-1.1,0.6C61.1,72.4,60.5,71.7,60.5,71z
			 M60.8,70.8h2.1c-0.1-0.5-0.5-0.9-1-0.9C61.3,69.9,60.9,70.2,60.8,70.8z"/>
		<path class="st0" d="M64,71.8c0-0.1,0.1-0.1,0.2,0c0.2,0.1,0.5,0.3,0.8,0.3c0.2,0,0.4-0.1,0.5-0.2c0.1-0.1,0.2-0.2,0.2-0.3
			c0-0.1-0.1-0.2-0.2-0.3c-0.1-0.1-0.3-0.2-0.6-0.2l0,0c-0.2,0-0.5-0.1-0.6-0.2c-0.2-0.1-0.3-0.3-0.3-0.5c0-0.2,0.1-0.4,0.3-0.5
			c0.2-0.1,0.4-0.2,0.7-0.2c0.4,0,0.6,0.2,0.8,0.3c0.1,0,0.1,0.1,0,0.2c0,0.1-0.1,0.1-0.2,0c-0.2-0.1-0.4-0.3-0.7-0.3
			c-0.2,0-0.4,0.1-0.5,0.2c-0.1,0.1-0.2,0.2-0.2,0.3s0.1,0.2,0.2,0.3c0.1,0.1,0.3,0.2,0.6,0.2h0c0.3,0,0.5,0.1,0.7,0.2
			c0.2,0.1,0.3,0.3,0.3,0.6c0,0.2-0.1,0.4-0.3,0.6c-0.2,0.1-0.4,0.2-0.7,0.2c-0.4,0-0.8-0.2-1-0.4C63.9,71.9,63.9,71.8,64,71.8z"/>
		<path class="st0" d="M67.1,67.9h-0.5c0,0-0.1,0-0.1-0.1c0,0,0-0.1,0.1-0.1h1.2c0,0,0.1,0,0.1,0.1c0,0,0,0.1-0.1,0.1h-0.5v1.6
			c0,0,0,0.1-0.1,0.1c0,0-0.1,0-0.1-0.1V67.9z"/>
		<path class="st0" d="M69.6,68l-0.6,0.8c0,0,0,0,0,0h0c0,0,0,0-0.1,0L68.4,68v1.4c0,0,0,0.1-0.1,0.1c0,0-0.1,0-0.1-0.1v-1.6
			c0,0,0,0,0,0c0,0,0,0,0,0c0,0,0.1,0,0.1,0l0.6,0.9l0.6-0.9c0,0,0.1,0,0.1,0c0,0,0,0,0,0c0,0,0,0,0,0v1.6c0,0,0,0.1-0.1,0.1
			c0,0-0.1,0-0.1-0.1V68z"/>
		<path class="st0" d="M74.3,68.3c0.5,0,0.9,0.2,1.3,0.4c0.1,0.1,0.1,0.1,0,0.2c0,0.1-0.1,0.1-0.2,0c-0.3-0.2-0.7-0.4-1.1-0.4
			c-1,0-1.8,0.8-1.8,1.7c0,0.9,0.8,1.7,1.8,1.7c0.4,0,0.8-0.1,1.1-0.4c0.1,0,0.2,0,0.2,0c0.1,0.1,0,0.2,0,0.2
			c-0.3,0.3-0.8,0.4-1.3,0.4c-1.1,0-2.1-0.9-2.1-2C72.2,69.2,73.1,68.3,74.3,68.3z"/>
		<path class="st0" d="M77.8,69.6c0.7,0,1.3,0.6,1.3,1.4s-0.6,1.4-1.3,1.4c-0.7,0-1.3-0.6-1.3-1.4S77.1,69.6,77.8,69.6z M77.8,72.1
			c0.6,0,1-0.5,1-1.1c0-0.6-0.5-1.1-1-1.1s-1,0.5-1,1.1C76.8,71.6,77.2,72.1,77.8,72.1z"/>
		<path class="st0" d="M84.1,70.7c0-0.5-0.4-0.9-0.9-0.9c-0.5,0-0.9,0.4-0.9,0.9v1.5v0c0,0,0,0,0,0v0c0,0,0,0.1-0.1,0.1
			c0,0,0,0-0.1,0h0h0c0,0,0,0,0,0c0,0,0,0,0,0c0,0,0,0,0,0l0,0c0,0,0,0,0,0c0,0,0,0,0,0c0,0,0,0,0,0c0,0,0,0,0,0v0v0v-1.5
			c0-0.5-0.4-0.9-0.9-0.9c-0.5,0-0.9,0.4-0.9,0.9v1.5c0,0,0,0.1-0.1,0.1c0,0,0,0,0,0c0,0,0,0,0,0h0h0c-0.1,0-0.1-0.1-0.1-0.1v0v-1.5
			v0v-1c0-0.1,0.1-0.1,0.1-0.1c0.1,0,0.1,0.1,0.1,0.1V70c0.2-0.2,0.5-0.4,0.9-0.4c0.4,0,0.8,0.2,1,0.6c0.2-0.4,0.6-0.6,1-0.6
			c0.6,0,1.1,0.5,1.1,1.1v1.5c0,0.1-0.1,0.1-0.1,0.1c-0.1,0-0.1-0.1-0.1-0.1V70.7z"/>
		<path class="st0" d="M85.5,71L85.5,71v-0.1v-1.2c0-0.1,0.1-0.1,0.1-0.1c0.1,0,0.1,0.1,0.1,0.1v0.4c0.2-0.3,0.6-0.5,1.1-0.5
			c0.7,0,1.3,0.6,1.3,1.4c0,0.8-0.6,1.4-1.3,1.4c-0.4,0-0.8-0.2-1.1-0.5v1.6c0,0.1-0.1,0.1-0.1,0.1c-0.1,0-0.1-0.1-0.1-0.1V71z
			 M85.8,71c0,0.6,0.5,1.1,1.1,1.1c0.6,0,1.1-0.5,1.1-1.1c0-0.6-0.5-1.1-1.1-1.1C86.3,69.9,85.8,70.3,85.8,71L85.8,71z"/>
		<path class="st0" d="M91.6,69.7v2.5c0,0.1-0.1,0.1-0.1,0.1c-0.1,0-0.1-0.1-0.1-0.1v-0.4c-0.2,0.3-0.6,0.5-1,0.5
			c-0.7,0-1.3-0.6-1.3-1.4c0-0.8,0.6-1.4,1.3-1.4c0.4,0,0.8,0.2,1,0.5v-0.4c0-0.1,0.1-0.1,0.1-0.1C91.5,69.6,91.6,69.6,91.6,69.7z
			 M91.3,71c0-0.6-0.5-1.1-1-1.1c-0.6,0-1,0.5-1,1.1s0.5,1.1,1,1.1C90.9,72.1,91.3,71.6,91.3,71z"/>
		<path class="st0" d="M94.7,70.7c0-0.5-0.4-0.9-0.9-0.9c-0.5,0-0.8,0.4-0.9,0.9v1.5v0c0,0,0,0,0,0.1c0,0-0.1,0.1-0.1,0.1h0
			c0,0-0.1,0-0.1-0.1c0,0,0,0,0,0c0,0,0,0,0,0v0v-1.5v0v-0.9c0-0.1,0.1-0.1,0.1-0.1c0.1,0,0.1,0.1,0.1,0.1V70
			c0.2-0.2,0.5-0.4,0.9-0.4c0.6,0,1.1,0.5,1.1,1.1v1.5c0,0.1-0.1,0.1-0.1,0.1s-0.1-0.1-0.1-0.1V70.7z"/>
		<path class="st0" d="M95.9,69.7c0-0.1,0.1-0.1,0.1-0.1c0.1,0,0.1,0.1,0.1,0.1v1.5c0,0.5,0.4,0.9,0.8,0.9c0.5,0,0.9-0.4,0.9-0.9
			v-1.5c0,0,0-0.1,0-0.1c0,0,0,0,0,0c0,0,0,0,0,0c0,0,0,0,0.1,0h0c0,0,0,0,0,0h0h0c0,0,0,0,0.1,0c0,0,0,0,0,0c0,0,0,0,0,0.1v1.5v0.1
			v0.9c0,0.7-0.6,1.3-1.3,1.3c-0.2,0-0.4-0.1-0.6-0.1c-0.1,0-0.1-0.1-0.1-0.2c0-0.1,0.1-0.1,0.2-0.1c0.1,0.1,0.3,0.1,0.5,0.1
			c0.6,0,1-0.5,1-1V72c-0.2,0.2-0.5,0.4-0.9,0.4c-0.6,0-1.1-0.5-1.1-1.1V69.7z"/>
	</g>
</g>
</svg>
