<?xml version="1.0" encoding="utf-8"?>
<!-- Generator: Adobe Illustrator 19.2.1, SVG Export Plug-In . SVG Version: 6.00 Build 0)  -->
<!DOCTYPE svg PUBLIC "-//W3C//DTD SVG 1.1//EN" "http://www.w3.org/Graphics/SVG/1.1/DTD/svg11.dtd">
<svg version="1.1" id="Layer_1" xmlns="http://www.w3.org/2000/svg" xmlns:xlink="http://www.w3.org/1999/xlink" x="0px" y="0px"
	 viewBox="0 0 235.3 25" style="enable-background:new 0 0 235.3 25;" xml:space="preserve">
<style type="text/css">
	.st0{fill:#FFFFFF;stroke:#FFFFFF;stroke-miterlimit:10;}
</style>
<g>
	<g>
		<g>
			<g>
				<g>
					<g>
						<path class="st0" d="M24.2,24.2c-0.2,0-0.3-0.1-0.4-0.2L1.6,1.9C1.3,1.7,1.3,1.3,1.6,1c0.2-0.2,0.6-0.2,0.9,0l22.1,22.1
							c0.2,0.2,0.2,0.6,0,0.9C24.5,24.2,24.3,24.2,24.2,24.2z"/>
						<path class="st0" d="M2,24.2c-0.2,0-0.3-0.1-0.4-0.2c-0.2-0.2-0.2-0.6,0-0.9L23.7,1c0.2-0.2,0.6-0.2,0.9,0
							c0.2,0.2,0.2,0.6,0,0.9L2.5,24C2.4,24.2,2.2,24.2,2,24.2z"/>
						<path class="st0" d="M35.2,13.1c-0.2,0-0.3-0.1-0.4-0.2L23.7,1.9c-0.2-0.2-0.2-0.6,0-0.9c0.2-0.2,0.6-0.2,0.9,0l11.1,11.1
							c0.2,0.2,0.2,0.6,0,0.9C35.5,13.1,35.4,13.1,35.2,13.1z"/>
						<path class="st0" d="M24.2,24.2c-0.2,0-0.3-0.1-0.4-0.2c-0.2-0.2-0.2-0.6,0-0.9L45.8,1c0.2-0.2,0.6-0.2,0.9,0
							c0.2,0.2,0.2,0.6,0,0.9L24.6,24C24.5,24.2,24.3,24.2,24.2,24.2z"/>
					</g>
				</g>
			</g>
			<g>
				<path class="st0" d="M48.7,0.8v0.1h-0.5v1.4H48V0.9h-0.5V0.8H48.7z"/>
				<path class="st0" d="M49.1,0.8l0.5,1.4l0.5-1.4h0.2v1.5h-0.1V1h0l-0.5,1.3h-0.1L49,1h0v1.3h-0.1V0.8H49.1z"/>
			</g>
		</g>
		<line class="st0" x1="59.9" y1="0.9" x2="59.9" y2="24"/>
	</g>
	<g>
		<path class="st0" d="M76.9,8.4h-3c-0.1,0-0.2-0.1-0.2-0.2c0-0.1,0.1-0.2,0.2-0.2h6.3c0.1,0,0.2,0.1,0.2,0.2c0,0.1-0.1,0.2-0.2,0.2
			h-3v8.5c0,0.1-0.1,0.2-0.2,0.2c-0.1,0-0.2-0.1-0.2-0.2V8.4z"/>
		<path class="st0" d="M87.2,13.4c0-1.2-1-2.2-2.2-2.2c-1.2,0-2.2,1-2.2,2.1v3.7c0,0.1,0,0.1-0.1,0.1c0,0-0.1,0-0.1,0h0
			c0,0-0.1,0-0.1,0c0,0-0.1-0.1-0.1-0.1v0v-3.6v-0.1v-5c0-0.1,0.1-0.2,0.2-0.2c0.1,0,0.2,0.1,0.2,0.2v3.9c0.4-0.8,1.3-1.3,2.2-1.3
			c1.4,0,2.6,1.1,2.6,2.6v3.6c0,0.1-0.1,0.2-0.2,0.2c-0.1,0-0.2-0.1-0.2-0.2V13.4z"/>
		<path class="st0" d="M89.8,14c0-1.8,1.4-3.2,3.1-3.2c1.6,0,2.9,1.3,3,2.9v0v0v0c0,0.1-0.1,0.2-0.2,0.2h-5.6v0
			c0,1.5,1.2,2.8,2.7,2.8c1,0,1.8-0.5,2.3-1.3c0.1-0.1,0.1-0.1,0.2,0c0.1,0,0.1,0.1,0,0.2c-0.5,0.8-1.5,1.4-2.5,1.4
			C91.2,17.1,89.8,15.7,89.8,14z M90.1,13.6h5.4c-0.2-1.4-1.3-2.5-2.7-2.5C91.5,11.1,90.3,12.2,90.1,13.6z"/>
		<path class="st0" d="M102.1,8.3c0-0.1,0.1-0.2,0.1-0.2h0h0h4.8c0.1,0,0.2,0.1,0.2,0.2c0,0.1-0.1,0.2-0.2,0.2h-4.7v4h4.1
			c0.1,0,0.2,0.1,0.2,0.2c0,0.1-0.1,0.2-0.2,0.2h-4.1v4.2c0,0.1-0.1,0.2-0.2,0.2c-0.1,0-0.1-0.1-0.1-0.2V8.3z"/>
		<path class="st0" d="M109.8,8.9c0-0.1,0.1-0.2,0.2-0.2c0.1,0,0.2,0.1,0.2,0.2v0.3c0,0.1-0.1,0.2-0.2,0.2c-0.1,0-0.2-0.1-0.2-0.2
			V8.9z M109.8,11c0-0.1,0.1-0.2,0.2-0.2c0.1,0,0.2,0.1,0.2,0.2v6c0,0.1-0.1,0.2-0.2,0.2c-0.1,0-0.2-0.1-0.2-0.2V11z"/>
		<path class="st0" d="M118.2,13.4c0-1.3-1-2.2-2.2-2.2c-1.2,0-2.2,1-2.2,2.2v3.6c0,0,0,0.1,0,0.1c0,0-0.1,0.1-0.1,0.1h0h0
			c0,0,0,0,0,0c0,0,0,0,0,0c0,0,0,0,0,0c0,0,0,0,0-0.1v0v-3.6v-0.1V11c0-0.1,0.1-0.2,0.2-0.2c0.1,0,0.2,0.1,0.2,0.2v1.2
			c0.4-0.8,1.3-1.3,2.2-1.3c1.4,0,2.5,1.1,2.5,2.6v3.6c0,0.1-0.1,0.2-0.2,0.2c-0.1,0-0.2-0.1-0.2-0.2V13.4z"/>
		<path class="st0" d="M126.5,17.1c-0.1,0-0.2-0.1-0.2-0.2v-1.6c-0.5,1-1.5,1.7-2.7,1.7c-1.7,0-3.1-1.4-3.1-3.2
			c0-1.7,1.4-3.1,3.1-3.1c1.2,0,2.2,0.7,2.7,1.7V8.3c0-0.1,0.1-0.2,0.2-0.2c0.1,0,0.2,0.1,0.2,0.2v5.5v0.1v0.2v2.8
			C126.7,17,126.7,17.1,126.5,17.1z M126.4,13.8c-0.1-1.5-1.3-2.7-2.7-2.7c-1.5,0-2.7,1.3-2.7,2.8c0,1.6,1.2,2.8,2.7,2.8
			c1.5,0,2.7-1.3,2.7-2.8V13.8z"/>
		<path class="st0" d="M134.8,11v6c0,0.1-0.1,0.2-0.2,0.2c-0.1,0-0.2-0.1-0.2-0.2v-1.6c-0.5,1-1.5,1.7-2.7,1.7c-1.6,0-3-1.4-3-3.2
			c0-1.7,1.3-3.2,3-3.2c1.2,0,2.2,0.7,2.7,1.7V11c0-0.1,0.1-0.2,0.2-0.2C134.7,10.8,134.8,10.9,134.8,11z M134.5,14
			c0-1.6-1.2-2.8-2.7-2.8s-2.7,1.3-2.7,2.8c0,1.6,1.2,2.8,2.7,2.8S134.5,15.5,134.5,14z"/>
		<path class="st0" d="M137.5,14.1v-0.2v-0.1V8.3c0-0.1,0.1-0.2,0.2-0.2c0.1,0,0.2,0.1,0.2,0.2v4.3c0.5-1,1.5-1.7,2.7-1.7
			c1.7,0,3.1,1.4,3.1,3.1c0,1.7-1.4,3.2-3.1,3.2c-1.2,0-2.2-0.7-2.7-1.7v1.6c0,0.1-0.1,0.2-0.2,0.2c-0.1,0-0.2-0.1-0.2-0.2V14.1z
			 M137.8,13.9c0,1.6,1.2,2.8,2.7,2.8c1.5,0,2.7-1.3,2.7-2.8c0-1.6-1.2-2.8-2.7-2.8c-1.4,0-2.7,1.2-2.7,2.7V13.9z"/>
		<path class="st0" d="M146.1,8.3c0-0.1,0.1-0.2,0.2-0.2c0.1,0,0.2,0.1,0.2,0.2v8.7c0,0.1-0.1,0.2-0.2,0.2c-0.1,0-0.2-0.1-0.2-0.2
			V8.3z"/>
		<path class="st0" d="M149.4,14c0-1.8,1.4-3.2,3.1-3.2c1.6,0,2.9,1.3,3,2.9v0v0v0c0,0.1-0.1,0.2-0.2,0.2h-5.6v0
			c0,1.5,1.2,2.8,2.7,2.8c1,0,1.8-0.5,2.3-1.3c0.1-0.1,0.1-0.1,0.2,0c0.1,0,0.1,0.1,0,0.2c-0.5,0.8-1.5,1.4-2.5,1.4
			C150.7,17.1,149.4,15.7,149.4,14z M149.7,13.6h5.4c-0.2-1.4-1.3-2.5-2.7-2.5C151,11.1,149.9,12.2,149.7,13.6z"/>
		<path class="st0" d="M157.3,16.2c-0.1-0.1-0.1-0.2,0-0.2c0.1-0.1,0.2-0.1,0.2,0c0,0,0.9,0.8,2.2,0.8c1.1,0,2.1-0.7,2.1-1.5
			c0-1-0.9-1.2-1.9-1.4c-1-0.2-2.2-0.5-2.2-1.7c0-0.9,0.9-1.5,2-1.5c1.3,0,1.9,0.7,1.9,0.8c0.1,0.1,0.1,0.2,0,0.2
			c-0.1,0.1-0.2,0.1-0.2,0c0,0-0.6-0.7-1.7-0.7c-0.9,0-1.7,0.5-1.7,1.2c0,0.9,0.9,1.1,1.9,1.4c1,0.2,2.2,0.5,2.2,1.7
			c0,1-1.1,1.8-2.4,1.8C158.4,17.1,157.4,16.2,157.3,16.2z"/>
		<path class="st0" d="M164.2,7.9h-1.1c0,0-0.1,0-0.1-0.1s0-0.1,0.1-0.1h2.4c0,0,0.1,0,0.1,0.1s0,0.1-0.1,0.1h-1.1v3.2
			c0,0,0,0.1-0.1,0.1c0,0-0.1,0-0.1-0.1V7.9z"/>
		<path class="st0" d="M169.2,8L168,9.7c0,0,0,0-0.1,0h0c0,0,0,0-0.1,0L166.6,8v3.1c0,0,0,0.1-0.1,0.1s-0.1,0-0.1-0.1V7.8
			c0,0,0-0.1,0.1-0.1c0,0,0,0,0,0c0,0,0,0,0,0l1.3,1.8l1.3-1.8c0,0,0,0,0,0c0,0,0,0,0,0c0,0,0.1,0,0.1,0.1v3.3c0,0,0,0.1-0.1,0.1
			c0,0-0.1,0-0.1-0.1V8z"/>
		<path class="st0" d="M179.6,8c1.1,0,2.1,0.4,2.9,1c0.1,0.1,0.1,0.2,0.1,0.2c-0.1,0.1-0.2,0.1-0.2,0c-0.7-0.6-1.7-0.9-2.7-0.9
			c-2.4,0-4.3,1.9-4.3,4.2c0,2.4,2,4.3,4.3,4.3c1,0,2-0.3,2.7-0.9c0.1-0.1,0.2-0.1,0.2,0c0.1,0.1,0,0.2,0,0.2c-0.8,0.6-1.8,1-2.9,1
			c-2.6,0-4.7-2.1-4.7-4.6C174.9,10,177,8,179.6,8z"/>
		<path class="st0" d="M187.7,10.8c1.6,0,3,1.4,3,3.2c0,1.7-1.3,3.2-3,3.2c-1.6,0-3-1.4-3-3.2C184.7,12.2,186,10.8,187.7,10.8z
			 M187.7,16.8c1.5,0,2.7-1.3,2.7-2.8c0-1.6-1.2-2.8-2.7-2.8c-1.5,0-2.7,1.3-2.7,2.8C185,15.5,186.2,16.8,187.7,16.8z"/>
		<path class="st0" d="M202.5,13.4c0-1.2-1-2.2-2.2-2.2c-1.2,0-2.2,1-2.2,2.1v0.1v3.6c0,0,0,0,0,0.1c0,0,0,0,0,0c0,0,0,0,0,0
			c0,0-0.1,0.1-0.1,0.1c-0.1,0-0.2-0.1-0.2-0.2v-3.6c0-1.2-1-2.2-2.2-2.2c-1.2,0-2.2,1-2.2,2.1v3.7c0,0,0,0.1,0,0.1c0,0,0,0,0,0
			c0,0,0,0,0,0c0,0-0.1,0-0.1,0h0c-0.1,0-0.1-0.1-0.1-0.2v-3.6c0-0.1,0-0.2,0-0.3V11c0-0.1,0.1-0.2,0.2-0.2c0.1,0,0.2,0.1,0.2,0.2
			v1.1c0.4-0.8,1.2-1.3,2.2-1.3c1.1,0,2,0.7,2.4,1.6c0.4-1,1.3-1.6,2.4-1.6c1.4,0,2.5,1.1,2.5,2.6v3.6c0,0.1-0.1,0.2-0.2,0.2
			c-0.1,0-0.2-0.1-0.2-0.2V13.4z"/>
		<path class="st0" d="M205.3,14v-0.1v-0.1V11c0-0.1,0.1-0.2,0.2-0.2c0.1,0,0.2,0.1,0.2,0.2v1.6c0.5-1,1.5-1.7,2.7-1.7
			c1.7,0,3,1.4,3,3.1s-1.3,3.1-3,3.1c-1.2,0-2.2-0.7-2.7-1.7v4.4c0,0.1-0.1,0.2-0.2,0.2c-0.1,0-0.2-0.1-0.2-0.2V14z M205.6,13.9
			c0,1.5,1.2,2.8,2.7,2.8c1.5,0,2.7-1.2,2.7-2.8c0-1.5-1.2-2.8-2.7-2.8c-1.4,0-2.6,1.2-2.7,2.7V13.9z"/>
		<path class="st0" d="M219.1,11v6c0,0.1-0.1,0.2-0.2,0.2c-0.1,0-0.2-0.1-0.2-0.2v-1.6c-0.5,1-1.5,1.7-2.7,1.7c-1.6,0-3-1.4-3-3.2
			c0-1.7,1.3-3.2,3-3.2c1.2,0,2.2,0.7,2.7,1.7V11c0-0.1,0.1-0.2,0.2-0.2C219,10.8,219.1,10.9,219.1,11z M218.7,14
			c0-1.6-1.2-2.8-2.7-2.8s-2.7,1.3-2.7,2.8c0,1.6,1.2,2.8,2.7,2.8S218.7,15.5,218.7,14z"/>
		<path class="st0" d="M226.4,13.4c0-1.3-1-2.2-2.2-2.2c-1.2,0-2.2,1-2.2,2.2v3.6c0,0,0,0.1,0,0.1c0,0-0.1,0.1-0.1,0.1h0h0
			c0,0,0,0,0,0c0,0,0,0,0,0c0,0,0,0,0,0c0,0,0,0,0-0.1v0v-3.6v-0.1V11c0-0.1,0.1-0.2,0.2-0.2c0.1,0,0.2,0.1,0.2,0.2v1.2
			c0.4-0.8,1.3-1.3,2.2-1.3c1.4,0,2.5,1.1,2.5,2.6v3.6c0,0.1-0.1,0.2-0.2,0.2c-0.1,0-0.2-0.1-0.2-0.2V13.4z"/>
		<path class="st0" d="M228.8,11c0-0.1,0.1-0.2,0.2-0.2c0.1,0,0.2,0.1,0.2,0.2v3.6c0,1.2,1,2.2,2.2,2.2c1.2,0,2.1-0.9,2.2-2.1V11v0
			c0,0,0,0,0-0.1c0,0,0,0,0,0l0,0c0,0,0.1,0,0.1,0h0c0,0,0,0,0,0l0,0c0,0,0,0,0,0c0,0,0,0.1,0,0.1v5.8c0,1.6-1.3,3-3,3
			c-0.5,0-0.9-0.1-1.3-0.3c-0.1,0-0.1-0.1-0.1-0.2c0-0.1,0.1-0.1,0.2-0.1c0.4,0.2,0.7,0.3,1.2,0.3c1.5,0,2.6-1.2,2.6-2.6v-1
			c-0.4,0.8-1.2,1.3-2.2,1.3c-1.4,0-2.5-1.1-2.5-2.5V11z"/>
	</g>
</g>
</svg>
